<?xml version="1.0" standalone="no"?>
<!DOCTYPE svg PUBLIC "-//W3C//DTD SVG 20010904//EN"
 "http://www.w3.org/TR/2001/REC-SVG-20010904/DTD/svg10.dtd">
<svg version="1.0" xmlns="http://www.w3.org/2000/svg"
 width="1024.000000pt" height="1024.000000pt" viewBox="0 0 1024.000000 1024.000000"
 preserveAspectRatio="xMidYMid meet">

<g transform="translate(0.000000,1024.000000) scale(0.100000,-0.100000)"
fill="#000000" stroke="none">
<path d="M5015 8787 l-90 -73 -2 -1640 c-2 -1211 -6 -1638 -14 -1636 -9 2 -99
72 -119 92 -3 3 -23 18 -45 35 -22 16 -45 34 -51 40 -6 5 -86 68 -177 139
l-167 129 0 1175 c0 1154 0 1174 -19 1161 -91 -65 -320 -232 -333 -243 -17
-12 -18 -79 -18 -1144 0 -622 3 -1138 6 -1147 4 -9 68 -62 143 -118 75 -56
143 -107 151 -114 8 -6 44 -35 80 -63 36 -28 73 -57 82 -65 9 -7 29 -22 45
-32 15 -9 30 -20 33 -23 3 -3 36 -30 75 -60 38 -30 77 -60 85 -67 69 -54 148
-116 160 -126 8 -7 40 -30 70 -52 30 -22 86 -65 124 -97 39 -32 76 -58 83 -58
8 0 50 28 94 63 45 34 93 71 108 81 29 22 213 168 221 176 3 3 23 18 45 35 22
16 42 32 45 35 3 3 39 32 80 64 41 31 90 69 109 84 19 15 91 71 160 124 69 54
131 101 136 105 6 5 28 21 50 38 22 16 51 40 65 52 l25 23 3 1108 c1 609 0
1121 -3 1137 -4 20 -19 39 -48 60 -23 16 -102 76 -175 132 -73 57 -135 103
-138 103 -3 0 -4 -527 -3 -1171 l3 -1172 -30 -24 c-34 -29 -136 -109 -244
-191 -41 -31 -80 -61 -86 -67 -6 -5 -28 -23 -49 -40 -21 -16 -65 -51 -98 -77
-33 -26 -63 -45 -68 -42 -5 2 -6 741 -2 1642 l6 1637 -95 73 c-52 39 -101 72
-109 72 -8 0 -54 -33 -104 -73z"/>
<path d="M6920 6385 c0 -965 -1 -1006 -19 -1024 -10 -10 -69 -57 -132 -104
-170 -129 -276 -211 -302 -232 -12 -11 -77 -60 -142 -110 -66 -49 -122 -92
-125 -96 -3 -3 -23 -18 -45 -35 -22 -16 -46 -34 -53 -41 -6 -6 -54 -43 -105
-82 -188 -142 -282 -215 -295 -228 -7 -7 -17 -13 -21 -13 -4 0 -16 -8 -27 -18
-10 -10 -77 -62 -149 -117 -71 -54 -132 -101 -135 -104 -3 -3 -41 -33 -84 -66
-43 -33 -84 -64 -90 -70 -49 -48 -93 -56 -122 -24 -18 21 -286 230 -426 334
-104 77 -644 492 -692 532 -10 8 -60 47 -110 85 -187 144 -233 178 -296 228
-36 28 -96 75 -135 104 -38 29 -76 60 -84 69 -11 14 -13 110 -9 566 l4 550
-80 -57 c-180 -126 -232 -164 -262 -186 l-31 -24 5 -529 c4 -487 5 -529 22
-543 24 -21 492 -386 560 -437 147 -111 236 -180 709 -545 51 -40 110 -86 131
-103 20 -16 70 -55 110 -85 39 -30 77 -60 83 -65 7 -6 30 -24 52 -40 48 -36
31 -23 184 -142 l124 -97 -5 -808 c-4 -764 -3 -810 13 -819 20 -10 262 -12
334 -2 l48 6 -5 806 c-4 443 -4 811 -1 818 4 10 158 138 272 226 20 15 43 33
51 40 8 7 53 42 100 77 47 36 87 67 90 71 3 3 23 18 45 34 22 17 42 32 45 36
3 3 32 25 65 50 33 24 66 50 75 56 8 7 38 30 66 50 57 42 104 78 309 236 77
59 150 116 162 126 12 10 46 36 75 57 29 22 60 44 68 51 26 22 135 107 190
148 29 22 57 45 64 50 6 6 36 29 66 50 124 90 209 161 219 185 8 17 10 320 9
990 l-3 965 -175 127 c-96 70 -178 128 -182 128 -5 0 -8 -452 -8 -1005z"/>
</g>
</svg>
